<?xml version="1.0" standalone="no"?>
<!DOCTYPE svg PUBLIC "-//W3C//DTD SVG 20010904//EN"
 "http://www.w3.org/TR/2001/REC-SVG-20010904/DTD/svg10.dtd">
<svg version="1.0" xmlns="http://www.w3.org/2000/svg"
 width="497.000000pt" height="190.000000pt" viewBox="0 0 497.000000 190.000000"
 preserveAspectRatio="xMidYMid meet">

<g transform="translate(0.000000,190.000000) scale(0.100000,-0.100000)"
fill="#546e7a" stroke="none">
<path d="M657 1560 c-24 -21 -45 -30 -69 -30 -44 0 -103 -52 -83 -72 3 -3 19
8 36 24 25 26 35 30 65 25 28 -5 37 -2 49 17 19 28 56 46 96 46 40 0 99 -56
99 -94 0 -24 4 -26 40 -26 29 0 48 -7 72 -29 19 -16 44 -31 57 -33 13 -1 33
-16 45 -31 20 -27 21 -41 21 -250 0 -190 -2 -222 -15 -222 -10 0 -17 16 -22
50 -4 28 -14 97 -22 155 -18 130 -35 150 -122 150 -47 0 -60 4 -83 28 -15 15
-30 34 -33 42 -4 12 -11 9 -36 -12 -28 -24 -40 -26 -111 -26 -52 0 -89 -6
-109 -16 -53 -27 -89 -21 -134 24 -23 22 -43 38 -45 36 -9 -8 27 -64 51 -80
31 -20 114 -21 141 -2 13 8 52 14 104 15 54 1 91 7 104 16 18 13 24 11 54 -15
28 -25 42 -30 86 -30 40 0 59 -5 75 -20 25 -24 26 -27 47 -190 9 -69 21 -131
27 -137 13 -16 40 -17 56 -1 16 16 17 424 1 465 -15 39 -47 71 -79 78 -15 3
-36 15 -46 26 -10 11 -36 24 -58 30 -34 9 -44 18 -59 50 -23 47 -60 69 -121
69 -36 0 -52 -6 -79 -30z"/>
<path d="M918 1579 c-10 -5 -18 -17 -18 -25 0 -13 4 -13 30 1 76 39 160 -13
160 -100 0 -14 5 -25 11 -25 8 0 10 16 6 47 -4 38 -12 54 -41 80 -30 28 -43
33 -83 33 -27 0 -56 -5 -65 -11z"/>
<path d="M3934 1557 c-29 -26 -37 -42 -41 -80 -4 -31 -2 -47 6 -47 6 0 11 11
11 25 0 87 84 139 160 100 26 -14 30 -14 30 -1 0 22 -33 36 -84 36 -38 0 -53
-6 -82 -33z"/>
<path d="M4188 1575 c-14 -8 -34 -32 -45 -54 -15 -32 -25 -41 -58 -50 -22 -5
-50 -19 -61 -29 -11 -11 -31 -23 -45 -27 -34 -10 -60 -35 -75 -72 -19 -43 -20
-453 -2 -471 16 -16 43 -15 56 1 6 6 18 68 27 137 21 163 22 166 47 190 16 15
35 20 75 20 44 0 58 5 86 30 30 26 36 28 54 15 13 -9 50 -15 104 -16 52 -1 91
-7 104 -15 27 -19 110 -18 141 2 24 16 60 72 51 80 -2 2 -22 -14 -45 -36 -45
-45 -81 -51 -134 -24 -20 10 -57 16 -109 16 -71 0 -83 2 -111 26 -25 21 -32
24 -36 12 -3 -8 -18 -27 -33 -42 -23 -24 -36 -28 -83 -28 -87 0 -104 -20 -122
-150 -8 -58 -18 -127 -22 -155 -5 -34 -12 -50 -22 -50 -13 0 -15 32 -15 222 0
209 1 223 21 250 12 15 32 30 45 31 13 2 38 17 57 33 24 22 43 29 72 29 36 0
40 2 40 26 0 38 59 94 99 94 40 0 77 -18 96 -46 12 -19 21 -22 49 -17 30 5 40
1 65 -25 27 -27 41 -31 41 -12 0 4 -12 19 -26 34 -19 18 -37 26 -62 26 -24 0
-45 9 -69 30 -27 24 -42 30 -81 30 -26 -1 -59 -7 -74 -15z"/>
<path d="M336 1481 c-25 -28 -17 -79 15 -104 68 -50 142 48 83 108 -22 21 -77
19 -98 -4z m82 -13 c28 -28 7 -78 -33 -78 -27 0 -45 18 -45 45 0 27 18 45 45
45 12 0 26 -5 33 -12z"/>
<path d="M4566 1484 c-40 -40 -24 -105 30 -118 60 -15 110 69 68 115 -21 23
-76 25 -98 3z m82 -16 c28 -28 7 -78 -33 -78 -27 0 -45 18 -45 45 0 27 18 45
45 45 12 0 26 -5 33 -12z"/>
<path d="M206 1225 c-21 -7 -51 -26 -67 -41 -55 -53 -59 -72 -59 -312 0 -131
4 -232 11 -249 15 -42 79 -102 119 -113 19 -5 65 -10 103 -10 l67 0 0 -40 c0
-27 7 -47 20 -60 19 -19 33 -20 309 -20 277 0 289 1 315 21 l26 20 0 195 c0
229 -18 271 -22 52 l-3 -143 -312 -3 -313 -2 0 329 c0 209 -4 332 -10 336 -6
4 -10 -8 -10 -29 l0 -36 -64 0 c-49 0 -69 -5 -90 -21 l-26 -20 0 -208 c0 -163
3 -211 14 -227 11 -15 30 -20 88 -24 l73 -5 0 -45 0 -45 -52 -3 c-101 -6 -171
29 -204 102 -16 36 -19 68 -19 246 0 194 1 208 23 250 33 66 64 84 153 88 62
4 73 7 63 18 -15 18 -82 17 -133 -1z m169 -355 l0 -225 -59 -3 c-96 -5 -96 -6
-96 229 0 194 0 198 23 214 15 11 39 15 77 13 l55 -3 0 -225z m655 -398 c0
-16 -6 -37 -14 -48 -14 -18 -31 -19 -291 -22 -314 -3 -325 -1 -325 63 l0 35
315 0 315 0 0 -28z"/>
<path d="M4662 1227 c-11 -13 -3 -15 62 -19 89 -4 120 -22 154 -88 21 -42 22
-56 22 -250 0 -178 -3 -210 -19 -246 -33 -73 -103 -108 -204 -102 l-52 3 0 45
0 45 73 5 c58 4 77 9 88 24 11 16 14 64 14 227 l0 208 -26 20 c-21 16 -41 21
-90 21 l-64 0 0 36 c0 21 -4 33 -10 29 -6 -4 -10 -127 -10 -336 l0 -329 -312
2 -313 3 -3 143 c-4 219 -22 177 -22 -52 l0 -195 26 -20 c26 -20 38 -21 313
-21 275 0 288 1 309 20 16 15 22 33 22 60 l0 40 68 0 c37 0 83 5 103 10 46 13
116 86 124 132 3 18 5 133 3 255 l-3 221 -31 39 c-43 52 -84 74 -152 80 -44 4
-61 2 -70 -10z m102 -146 c14 -11 16 -43 16 -212 l0 -199 -24 -15 c-16 -11
-41 -15 -78 -13 l-53 3 -3 215 c-1 118 0 221 3 228 7 18 116 12 139 -7z m-164
-616 c0 -64 -11 -66 -325 -63 -260 3 -277 4 -291 22 -8 11 -14 32 -14 48 l0
28 315 0 315 0 0 -35z"/>
<path d="M525 1108 c-3 -7 -4 -119 -3 -247 2 -177 6 -235 16 -239 16 -5 18
483 2 493 -6 3 -12 0 -15 -7z"/>
<path d="M647 1114 c-4 -4 -7 -117 -7 -251 0 -191 3 -244 13 -241 9 4 13 63
15 243 2 218 -2 268 -21 249z"/>
<path d="M767 1113 c-11 -11 -8 -493 3 -493 6 0 10 90 10 250 0 138 -1 250 -3
250 -2 0 -7 -3 -10 -7z"/>
<path d="M880 870 c0 -160 4 -250 10 -250 6 0 10 90 10 250 0 160 -4 250 -10
250 -6 0 -10 -90 -10 -250z"/>
<path d="M4100 870 c0 -160 4 -250 10 -250 6 0 10 90 10 250 0 160 -4 250 -10
250 -6 0 -10 -90 -10 -250z"/>
<path d="M4220 871 c0 -161 4 -251 10 -251 6 0 10 88 10 244 0 153 -4 247 -10
251 -7 4 -10 -80 -10 -244z"/>
<path d="M4335 1108 c-3 -7 -4 -119 -3 -247 2 -177 6 -235 16 -239 16 -5 18
483 2 493 -6 3 -12 0 -15 -7z"/>
<path d="M4457 1114 c-4 -4 -7 -117 -7 -251 0 -191 3 -244 13 -241 9 4 13 63
15 243 2 218 -2 268 -21 249z"/>
<path d="M1250 865 c0 -166 9 -197 65 -221 54 -22 136 -18 176 9 48 32 58 71
58 225 l1 132 -35 0 -35 0 0 -138 c0 -125 -2 -140 -20 -160 -28 -30 -99 -31
-126 -1 -16 18 -19 40 -22 160 l-4 139 -29 0 -29 0 0 -145z"/>
<path d="M1650 821 l0 -191 35 0 35 0 0 131 c0 75 4 128 9 125 5 -4 44 -62 86
-131 74 -121 78 -125 111 -125 l34 0 0 190 0 190 -30 0 -30 0 0 -119 c0 -66
-3 -122 -8 -125 -4 -2 -41 50 -83 117 l-76 122 -41 3 -42 3 0 -190z"/>
<path d="M2030 980 c0 -30 1 -30 55 -30 l55 0 0 -160 0 -160 35 0 35 0 0 160
0 160 55 0 c54 0 55 0 55 30 l0 30 -145 0 -145 0 0 -30z"/>
<path d="M2455 958 c-10 -29 -40 -115 -66 -191 l-49 -138 37 3 c33 3 38 7 51
46 l14 43 76 -3 75 -3 15 -42 c12 -39 17 -43 48 -43 19 0 34 3 34 8 0 4 -28
88 -63 187 l-62 180 -47 3 -46 3 -17 -53z m90 -90 c9 -34 19 -68 22 -75 4 -10
-9 -13 -50 -13 l-55 0 19 63 c11 34 21 68 24 75 9 26 23 9 40 -50z"/>
<path d="M2760 820 l0 -190 30 0 29 0 3 73 3 72 73 5 c65 4 77 8 98 33 18 21
24 40 24 75 0 89 -49 122 -180 122 l-80 0 0 -190z m180 115 c18 -22 15 -77 -6
-92 -10 -7 -39 -13 -66 -13 l-48 0 0 60 0 60 54 0 c36 0 58 -5 66 -15z"/>
<path d="M3100 820 l0 -190 35 0 34 0 3 73 3 72 65 5 c36 3 75 11 86 17 30 17
48 66 41 114 -10 75 -55 99 -189 99 l-78 0 0 -190z m188 118 c17 -17 15 -74
-4 -92 -10 -10 -33 -16 -65 -16 l-49 0 0 60 0 60 53 0 c29 0 58 -5 65 -12z"/>
<path d="M3450 820 l0 -193 99 5 c123 6 166 25 199 88 46 91 18 221 -57 264
-25 15 -59 21 -137 24 l-104 5 0 -193z m218 97 c24 -25 27 -35 27 -97 0 -62
-3 -72 -27 -97 -22 -22 -39 -27 -88 -31 l-60 -4 0 132 0 132 60 -4 c49 -4 66
-9 88 -31z"/>
</g>
</svg>
